# xmcd
#
# Track frame offsets: 
#        183
#        21513
#        42260
#        61168
#        82543
#        98578
#        116315
#        152078
#
# Disc length: 2210 seconds
#
# Revision: 2
# Processed by: cddbd v1.5.2PL0 Copyright (c) Steve Scherf et al.
# Submitted via: ExactAudioCopy v0.99pb5
#
DISCID=4f08a008
DTITLE=Luther Allison - Time
DYEAR=1995
DGENRE=Blues
TTITLE0=Time
TTITLE1=Give It All
TTITLE2=Down South
TTITLE3=I Can't Tell You What To Do
TTITLE4=Compromizing For Your Needs
TTITLE5=It's Partyin' Time
TTITLE6=You're Doing A Super Homework
TTITLE7=Just My Guitar {And Me}
EXTD=
EXTT0=
EXTT1=
EXTT2=
EXTT3=
EXTT4=
EXTT5=
EXTT6=
EXTT7=
PLAYORDER=
